<?xml version="1.0" standalone="no"?><!DOCTYPE svg PUBLIC "-//W3C//DTD SVG 1.1//EN" "http://www.w3.org/Graphics/SVG/1.1/DTD/svg11.dtd"><svg t="1660485359824" class="icon" viewBox="0 0 1024 1024" version="1.1" xmlns="http://www.w3.org/2000/svg" p-id="4695" width="32" height="32" xmlns:xlink="http://www.w3.org/1999/xlink"><defs><style type="text/css"></style></defs><path d="M512 512m-512 0a512 512 0 1 0 1024 0 512 512 0 1 0-1024 0Z" fill="#334E5C" p-id="4696"></path><path d="M707.784 224.632l-7.704 3.992-19.176 67.32-124.144-120.832s1.656-31.448-69.512-3.304c-71.168 28.136 28.144 127.448 28.144 127.448l-11.04 73.24-51.856-48.416-16.552 11.584-98.04-99.248 18.576 119.112-112.552-26.48-13.24 4.96 102.624 100.968-1.656 13.24 40.824 56.072-63.992 3.512-66.208-44.688s-18.2-4.968-49.656 1.656-14.888 94.352-14.888 94.352l122.48 122.472-57.928 13.248-20.976 8.392 322.784 319.656c259.504-16.048 466.68-225.312 479.28-485.736L707.784 224.632z" fill="#29414C" p-id="4697"></path><path d="M512 735.624a11.312 11.312 0 0 1-11.32-11.312V299.696a11.312 11.312 0 1 1 22.64 0v424.616c0 6.248-5.04 11.312-11.32 11.312z" fill="#E5DEC2" p-id="4698"></path><path d="M512 317.896c-3.168 0-6.216-1.328-8.352-3.664-9.288-10.16-55.696-62.44-55.696-94.36 0-35.336 28.712-64.08 64.048-64.08 35.328 0 64.08 28.744 64.08 64.08 0 31.928-46.44 84.208-55.728 94.36a11.304 11.304 0 0 1-8.352 3.664z m0-139.464a41.464 41.464 0 0 0-41.4 41.44c0 15.544 22.8 47.584 41.4 69.568 18.632-21.984 41.44-54.024 41.44-69.568a41.48 41.48 0 0 0-41.44-41.44zM512 392.136c-2.744 0-5.496-1-7.656-3L406.216 298.56a11.32 11.32 0 1 1 15.36-16.64l98.12 90.568A11.336 11.336 0 1 1 512 392.136z" fill="#E5DEC2" p-id="4699"></path><path d="M424.328 362.792a11.312 11.312 0 0 1-6.872-20.312l30.576-23.376a11.32 11.32 0 1 1 13.712 17.992l-30.568 23.36a11.088 11.088 0 0 1-6.848 2.336zM512 392.136a11.304 11.304 0 0 1-7.656-19.64l98.112-90.568a11.352 11.352 0 0 1 16.016 0.64 11.36 11.36 0 0 1-0.656 16L519.696 389.136c-2.176 2-4.912 3-7.696 3z" fill="#E5DEC2" p-id="4700"></path><path d="M599.672 362.792c-2.4 0-4.808-0.76-6.848-2.336l-30.568-23.36a11.328 11.328 0 0 1 13.752-17.992l30.568 23.376a11.32 11.32 0 0 1-6.904 20.312z" fill="#E5DEC2" p-id="4701"></path><path d="M512.08 868.2h-0.04c-35.336 0-64.088-28.72-64.088-64.048 0-31.92 46.408-84.2 55.696-94.376 4.304-4.688 12.432-4.688 16.704 0 9.336 10.16 55.728 62.424 55.728 94.344 0.048 35.32-28.712 64.08-64 64.08zM512 734.576c-18.6 21.984-41.4 54.016-41.4 69.56a41.488 41.488 0 0 0 41.44 41.424 41.44 41.44 0 0 0 41.4-41.44c0-14.856-22.072-46.68-41.44-69.544zM610.12 745.064c-2.744 0-5.488-1-7.664-3l-98.112-90.56a11.304 11.304 0 1 1 15.312-16.64l98.16 90.56a11.36 11.36 0 0 1 0.656 16 11.36 11.36 0 0 1-8.352 3.64z" fill="#E5DEC2" p-id="4702"></path><path d="M569.152 707.216c-3.448 0-6.792-1.528-9.008-4.456a11.312 11.312 0 0 1 2.112-15.872l30.568-23.376a11.328 11.328 0 1 1 13.752 18l-30.568 23.376a11.296 11.296 0 0 1-6.856 2.328z" fill="#E5DEC2" p-id="4703"></path><path d="M413.88 745.112a11.32 11.32 0 0 1-7.664-19.64L504.304 634.88a11.32 11.32 0 1 1 15.352 16.624l-98.08 90.592a11.224 11.224 0 0 1-7.696 3.016z" fill="#E5DEC2" p-id="4704"></path><path d="M454.848 707.232c-2.352 0-4.792-0.752-6.856-2.312l-30.568-23.36a11.376 11.376 0 0 1-2.136-15.872 11.36 11.36 0 0 1 15.888-2.128l30.568 23.376a11.296 11.296 0 1 1-6.896 20.296z" fill="#E5DEC2" p-id="4705"></path><path d="M724.32 523.328l-424.64-0.016a11.32 11.32 0 1 1 0-22.64l424.64 0.008a11.32 11.32 0 1 1 0 22.648z" fill="#E5DEC2" p-id="4706"></path><path d="M804.144 576.08c-31.936 0-84.2-46.44-94.376-55.752a11.328 11.328 0 0 1 0-16.688c10.168-9.304 62.44-55.712 94.376-55.712 35.352 0 64.088 28.744 64.088 64.064-0.008 35.336-28.736 64.088-64.088 64.088z m-69.568-64.088c21.96 18.624 54.024 41.44 69.56 41.44a41.488 41.488 0 0 0 41.44-41.44 41.48 41.48 0 0 0-41.44-41.416c-15.536-0.008-47.6 22.8-69.56 41.416zM643.2 523.328a11.32 11.32 0 0 1-8.304-19l90.568-98.136a11.312 11.312 0 1 1 16.616 15.36L651.512 519.672a11.224 11.224 0 0 1-8.312 3.656z" fill="#E5DEC2" p-id="4707"></path><path d="M695.92 466.208c-3.392 0-6.784-1.536-9-4.448l-23.36-30.568a11.304 11.304 0 1 1 17.952-13.744l23.368 30.568a11.304 11.304 0 0 1-8.96 18.192z" fill="#E5DEC2" p-id="4708"></path><path d="M733.776 621.44a11.2 11.2 0 0 1-8.304-3.64L634.896 519.672a11.32 11.32 0 0 1 0.6-16 11.36 11.36 0 0 1 16.016 0.648L742.08 602.432a11.328 11.328 0 0 1-8.304 19.008z" fill="#E5DEC2" p-id="4709"></path><path d="M672.52 611.016a11.304 11.304 0 0 1-8.96-18.2l23.36-30.576a11.312 11.312 0 1 1 17.96 13.744l-23.368 30.576a11.184 11.184 0 0 1-8.992 4.456z" fill="#E5DEC2" p-id="4710"></path><path d="M219.856 576.08c-35.352 0-64.088-28.728-64.088-64.032a63.456 63.456 0 0 1 18.752-45.328 63.584 63.584 0 0 1 45.288-18.768c31.936 0 84.248 46.4 94.384 55.688a11.28 11.28 0 0 1 0 16.704c-10.128 9.296-62.392 55.736-94.336 55.736z m0-105.488a41.128 41.128 0 0 0-29.32 12.144 41.144 41.144 0 0 0-12.12 29.304 41.456 41.456 0 0 0 41.44 41.392c15.536 0 47.56-22.824 69.56-41.424-21.992-18.616-54.056-41.416-69.56-41.416zM290.256 621.44a11.328 11.328 0 0 1-8.344-19l90.56-98.144a11.312 11.312 0 0 1 15.984-0.64c4.608 4.24 4.912 11.4 0.68 16L298.568 617.8a11.248 11.248 0 0 1-8.312 3.64z" fill="#E5DEC2" p-id="4711"></path><path d="M351.48 610.984c-3.384 0-6.792-1.528-8.992-4.456l-23.368-30.544a11.312 11.312 0 1 1 17.96-13.76l23.4 30.56a11.36 11.36 0 0 1-2.136 15.872 11.36 11.36 0 0 1-6.864 2.328z" fill="#E5DEC2" p-id="4712"></path><path d="M380.8 523.296a11.28 11.28 0 0 1-8.32-3.64L281.872 421.544a11.312 11.312 0 0 1 16.616-15.352l90.608 98.104a11.312 11.312 0 0 1-8.296 19z" fill="#E5DEC2" p-id="4713"></path><path d="M328.032 466.184a11.312 11.312 0 0 1-8.952-18.192l23.328-30.584a11.36 11.36 0 0 1 15.888-2.12c4.96 3.8 5.912 10.896 2.144 15.856l-23.36 30.584a11.328 11.328 0 0 1-9.048 4.456z" fill="#E5DEC2" p-id="4714"></path><path d="M744.872 756.168c-2.896 0-5.792-1.112-8.008-3.328L271.16 287.176a11.328 11.328 0 0 1 16.016-16.008L752.88 736.84a11.32 11.32 0 0 1-8.008 19.328z" fill="#E5DEC2" p-id="4715"></path><path d="M362.072 373.392c-1.032 0-2.056-0.144-3.12-0.448L236.4 337.936c-5.984-1.72-9.504-7.984-7.784-14s8.048-9.48 13.992-7.768l122.544 35.008a11.36 11.36 0 0 1 7.832 14 11.408 11.408 0 0 1-10.912 8.216zM440.832 452.16c-1.024 0-2.056-0.152-3.12-0.448l-122.528-35.016a11.344 11.344 0 0 1-7.816-13.992 11.4 11.4 0 0 1 14.032-7.784l122.52 35.024c6.024 1.712 9.488 7.976 7.816 14a11.4 11.4 0 0 1-10.904 8.216z" fill="#E5DEC2" p-id="4716"></path><path d="M362.072 373.392a11.376 11.376 0 0 1-10.896-8.216l-35.024-122.528a11.32 11.32 0 0 1 7.728-14c5.984-1.704 12.32 1.76 14.032 7.776l35.032 122.528a11.288 11.288 0 0 1-10.872 14.44zM440.832 452.16a11.36 11.36 0 0 1-10.904-8.216l-34.984-122.512a11.328 11.328 0 0 1 21.768-6.224l35.032 122.504a11.368 11.368 0 0 1-10.912 14.448z" fill="#E5DEC2" p-id="4717"></path><path d="M784.52 708.296c-1.04 0-2.112-0.144-3.136-0.44l-122.544-35.016a11.344 11.344 0 0 1-7.784-14 11.328 11.328 0 0 1 13.984-7.768l122.552 35.016a11.312 11.312 0 0 1-3.072 22.208zM705.72 629.512c-1.024 0-2.096-0.144-3.12-0.456L580.08 594.056a11.352 11.352 0 0 1-7.784-13.992 11.36 11.36 0 0 1 13.992-7.768l122.52 35a11.336 11.336 0 1 1-3.088 22.216z" fill="#E5DEC2" p-id="4718"></path><path d="M696.992 795.8a11.32 11.32 0 0 1-10.864-8.216l-35.032-122.512a11.304 11.304 0 1 1 21.736-6.216l35.072 122.512a11.344 11.344 0 0 1-10.912 14.432zM618.2 717.032a11.32 11.32 0 0 1-10.864-8.2l-35.04-122.536a11.344 11.344 0 0 1 21.808-6.224l35 122.528a11.32 11.32 0 0 1-10.904 14.432z" fill="#E5DEC2" p-id="4719"></path><path d="M279.168 756.168a11.32 11.32 0 0 1-8.016-19.328l465.672-465.704a11.32 11.32 0 0 1 16.016 16.008L287.168 752.84a11.232 11.232 0 0 1-8 3.328z" fill="#E5DEC2" p-id="4720"></path><path d="M661.96 373.384a11.336 11.336 0 0 1-10.904-14.44l34.992-122.544a11.328 11.328 0 1 1 21.8 6.216l-34.976 122.544a11.408 11.408 0 0 1-10.912 8.224zM583.2 452.136a11.328 11.328 0 0 1-10.912-14.44l35.04-122.544a11.32 11.32 0 0 1 21.768 6.224L594.072 443.92a11.304 11.304 0 0 1-10.872 8.216z" fill="#E5DEC2" p-id="4721"></path><path d="M661.96 373.384a11.304 11.304 0 0 1-10.864-8.216 11.304 11.304 0 0 1 7.752-14l122.504-35.056a11.344 11.344 0 0 1 14.032 7.776 11.36 11.36 0 0 1-7.784 14l-122.504 35.064a11.984 11.984 0 0 1-3.136 0.432zM583.168 452.136a11.328 11.328 0 0 1-3.088-22.208l122.52-35.024a11.352 11.352 0 0 1 13.992 7.776 11.336 11.336 0 0 1-7.784 14l-122.52 35.008a10.784 10.784 0 0 1-3.12 0.448z" fill="#E5DEC2" p-id="4722"></path><path d="M327.048 795.832c-1.032 0-2.072-0.16-3.096-0.456a11.32 11.32 0 0 1-7.808-13.984l35.024-122.56a11.376 11.376 0 0 1 13.984-7.784 11.36 11.36 0 0 1 7.832 14l-35.04 122.56a11.392 11.392 0 0 1-10.896 8.224zM405.84 717.016a11.352 11.352 0 0 1-10.912-14.44l35.024-122.504a11.328 11.328 0 0 1 21.776 6.216L416.744 708.8a11.4 11.4 0 0 1-10.904 8.216z" fill="#E5DEC2" p-id="4723"></path><path d="M239.56 708.328a11.304 11.304 0 0 1-10.872-8.216 11.312 11.312 0 0 1 7.752-14l122.512-35.064a11.304 11.304 0 0 1 13.984 7.784 11.288 11.288 0 0 1-7.736 14l-122.512 35.064a12.016 12.016 0 0 1-3.128 0.432zM318.312 629.528a11.32 11.32 0 0 1-3.08-22.216l122.512-35.016a11.336 11.336 0 0 1 13.992 7.784 11.304 11.304 0 0 1-7.784 13.984L321.44 629.096a11.52 11.52 0 0 1-3.128 0.432z" fill="#E5DEC2" p-id="4724"></path></svg>